<?xml version="1.0" encoding="utf-8"?>
<!-- Generator: Adobe Illustrator 16.0.3, SVG Export Plug-In . SVG Version: 6.00 Build 0)  -->
<!DOCTYPE svg PUBLIC "-//W3C//DTD SVG 1.1//EN" "http://www.w3.org/Graphics/SVG/1.1/DTD/svg11.dtd">
<svg version="1.1" id="Layer_1" xmlns="http://www.w3.org/2000/svg" xmlns:xlink="http://www.w3.org/1999/xlink" x="0px" y="0px"
	 width="201.623px" height="106.768px" viewBox="0 0 201.623 106.768" enable-background="new 0 0 201.623 106.768"
	 xml:space="preserve">
<path fill="#54B0CB" d="M0,30.294h5.993v11.472c0,0,2.062-3.495,6.185-3.495c4.123,0,5.826,1.792,6.901,3.495
	c1.076,1.704,2.151,3.675,2.151,11.025s-1.703,11.225-3.943,13.623c-2.241,2.398-2.868,2.398-5.378,2.398
	c-2.509,0-5.109-2.129-6.633-4.46v4.46H0V30.294z M5.455,49.554V57.9c0,0,0,5.915,4.481,5.915s5.288-5.915,5.288-5.915v-8.346
	c0,0-0.179-6.084-4.61-6.084S5.455,49.554,5.455,49.554"/>
<polyline fill="#54B0CB" points="25.532,30.294 32.344,30.294 32.344,68.813 25.532,68.813 "/>
<path fill="#54B0CB" d="M36.646,39.437h6.901V60.05c0,0,0.269,3.497,3.496,3.497c3.227,0,3.765-3.317,3.765-3.317V39.437h7.081
	v29.376h-6.005V65.07c0,0-1.703,3.743-7.17,3.743s-6.722-3.385-6.722-3.385s-1.344-2.42-1.344-4.57"/>
<path fill="#54B0CB" d="M68.195,57.661c0,0-0.12,6.633,3.944,6.633c4.063,0,4.302-6.692,4.302-6.692h6.693
	c0,0,0.298,11.212-10.577,11.212c-10.875,0-10.576-11.511-10.576-11.511v-7.827c0,0,0.06-11.204,10.726-11.204
	c10.666,0,10.427,10.426,10.427,10.426v5.915H68.135L68.195,57.661z M72.557,42.364c-4.959,0-5.199,8.007-5.199,8.007h9.799
	C77.158,50.372,77.516,42.364,72.557,42.364z"/>
<path fill="#454D57" d="M87.315,68.813V30.175h12.07c0,0,12.011-0.717,12.011,9.56c0,8.187-6.453,9.262-6.453,9.262
	s5.788,0.956,5.796,7.17c0.003,2.15,0.06,7.888,0.06,7.888s0.03,2.816,1.973,4.758h-7.649c0,0-1.075,0-1.075-4.041
	c0-3.128-0.358-8.306-0.358-8.306s0.657-4.78-4.661-4.9c-5.735-0.129-4.541-0.06-4.541-0.06v17.307H87.315z M94.486,46.547h6.189
	c0,0,4.088-1.374,4.088-5.856c0-4.481-4.088-5.497-4.088-5.497h-6.189V46.547z"/>
<path fill="#454D57" d="M125.378,38.36c0,0,10.755,0.359,10.755,12.19c0,5.646,0,5.646,0,5.646s0.089,12.616-10.755,12.616
	c-10.846,0-10.576-11.988-10.576-11.988l-0.001-7.336C114.801,49.489,116.505,38.36,125.378,38.36z M125.467,43.021
	c-5.02,0-5.019,10.566-5.019,10.566s-0.089,10.497,5.019,10.497c5.109,0,5.199-10.497,5.199-10.497S130.487,43.021,125.467,43.021z"
	/>
<polygon fill="#454D57" points="137.298,39.347 145.545,68.813 152.356,68.813 160.333,39.347 153.073,39.347 148.816,60.141 
	144.29,39.347 "/>
<path fill="#454D57" d="M168.22,57.661c0,0-0.12,6.633,3.944,6.633c4.062,0,4.302-6.692,4.302-6.692h6.693
	c0,0,0.298,11.212-10.576,11.212c-10.875,0-10.577-11.511-10.577-11.511v-7.827c0,0,0.061-11.204,10.726-11.204
	s10.427,10.426,10.427,10.426v5.915h-14.998L168.22,57.661z M172.583,42.364c-4.959,0-5.199,8.007-5.199,8.007h9.799
	C177.183,50.372,177.542,42.364,172.583,42.364z"/>
<path fill="#454D57" d="M187.132,39.347h6.812v3.675c0,0,2.061-4.661,5.288-4.661h2.119v7.082c0,0-1.223-0.807-3.372-0.493
	c-1.236,0.181-4.214,2.017-4.214,4.167c0,2.152,0,18.554,0,18.554h-6.633"/>
<path fill="#54B0CB" d="M108.528,19.061c0,0,10.445,0.837,13.922,10.158c0.838,2.249-2.152,1.912-2.749,0
	c-0.431-1.379-3.944-8.577-15.596-9.083c-2.748-0.119-0.299-1.434-0.299-1.434S106.744,18.74,108.528,19.061z"/>
<path fill="#54B0CB" d="M116.422,9.089c0,0,12.985,1.222,17.308,14.837c1.043,3.285-2.674,2.793-3.417,0
	c-0.535-2.015-4.903-12.527-19.388-13.266c-3.418-0.174-0.372-2.095-0.372-2.095S114.204,8.62,116.422,9.089z"/>
<path fill="#54B0CB" d="M126.029,0.618c0,0,15.554,1.441,20.731,17.493c1.249,3.874-3.203,3.293-4.092,0
	c-0.641-2.375-5.874-14.77-23.223-15.641C115.353,2.264,119,0,119,0S123.372,0.064,126.029,0.618z"/>
<rect y="81.434" fill="none" width="201.623" height="25.334"/>
<text transform="matrix(1 0 0 1 13.6162 92.8599)"><tspan x="0" y="0" fill="#C2C2C6" font-family="'Roboto-Regular'" font-size="15">INFINITE INTELLIGENCE</tspan><tspan x="162.656" y="-5" fill="#C2C2C6" font-family="'Roboto-Regular'" font-size="8">TM</tspan></text>
</svg>
