<?xml version="1.0" encoding="utf-8"?>
<!-- Generator: Adobe Illustrator 15.0.0, SVG Export Plug-In . SVG Version: 6.00 Build 0)  -->
<!DOCTYPE svg PUBLIC "-//W3C//DTD SVG 1.1//EN" "http://www.w3.org/Graphics/SVG/1.1/DTD/svg11.dtd">
<svg version="1.1" id="Layer_1" xmlns="http://www.w3.org/2000/svg" xmlns:xlink="http://www.w3.org/1999/xlink" x="0px" y="0px"
	 width="1034.568px" height="800px" viewBox="0 0 1034.568 800" enable-background="new 0 0 1034.568 800" xml:space="preserve">
<g>
	<g>
		<g enable-background="new    ">
			<defs>
				<polygon id="SVGID_1_" enable-background="new    " points="19.791,325.668 537.353,40.175 1009.899,356.261 482.116,760.338 
									"/>
			</defs>
			<clipPath id="SVGID_2_">
				<use xlink:href="#SVGID_1_"  overflow="visible"/>
			</clipPath>
			<g clip-path="url(#SVGID_2_)">
				<g>
					<g>
						<g>
							<polyline fill="#DADCD6" points="511.626,407.518 502.677,405.181 383.28,483.938 382.107,489.296 382.303,490.419 
								387.898,495.312 513.467,411.938 509.626,408.842 511.626,407.518 							"/>
							<path fill="#898989" d="M514.167,412.503l-0.7-0.564l-125.569,83.374l0.376,0.329l21.24-14.106l22.523-14.959l0.321,0.272
								l0.208-0.138l-0.308-0.262l42.962-28.533l-0.246-0.203l17.446-11.585l0.246,0.201l10.174-6.757l0.309,0.251l0.22-0.146
								l-0.302-0.245l10.581-7.027l0.303,0.244L514.167,412.503 M512.487,406.947l-10.048-2.629l-120.151,79.216l-1.262,5.769
								l0.186,1.064l0.587-0.389l0.503,0.44l-0.196-1.123l1.173-5.358l119.397-78.757l8.949,2.337L512.487,406.947"/>
							<polyline id="floorplan-40319" fill="#FBE796" points="425.781,496.812 409.402,482.674 389.428,495.945 405.786,510.251 425.781,496.812 							
								"/>
							<path fill="#C1B995" d="M409.514,481.535l-21.24,14.106l0.013,0.012l0.458-0.305l0.683,0.597l19.974-13.271l16.379,14.138
								l-19.996,13.439l0.622,0.543c-0.105,0.075-0.209,0.15-0.312,0.227s-0.204,0.153-0.303,0.23
								c-0.1,0.078-0.198,0.156-0.294,0.235s-0.192,0.158-0.285,0.239l22.032-14.815l-17.782-15.341L409.514,481.535"/>
							<polyline opacity="0.4" fill="#EDEBDD" points="785.866,338.482 701.403,278.38 643.622,316.576 652.972,323.48 
								649.492,325.794 627.577,309.575 605.104,324.301 626.31,340.223 622.062,343.047 613.421,336.541 557.076,373.787 
								641.468,439.671 785.866,338.482 							"/>
							<polyline opacity="0.4" fill="#EDEBDD" points="893.092,414.781 790.316,341.648 747.1,372.026 813.127,420.33 
								779.007,445.432 722.319,403.04 655.29,450.462 694.238,480.869 730.651,454.407 785.325,496.104 893.092,414.781 							"/>
							<polyline opacity="0.4" fill="#EDEBDD" points="462.438,611.312 444.535,595.323 443.559,596.014 434.697,588.094 
								381.284,625.582 416.967,658.601 470.497,620.086 461.461,612.012 462.438,611.312 							"/>
							<path fill="#DADCD6" d="M728.313,193.41l-119.176-80.536l-60.069,24.502c1.094,1.003,3.79,3.463,7.598,6.856
								c3.82,3.404,8.768,7.754,14.346,12.521c5.604,4.789,11.851,10.003,18.229,15.098c6.409,5.121,12.95,10.119,19.095,14.437
								c6.14,4.314,13.153,8.82,20.33,13.209c7.206,4.407,14.574,8.696,21.375,12.548c6.825,3.867,13.073,7.292,18.003,9.952
								c4.941,2.667,8.551,4.561,10.081,5.359l14.782-14.873c-1.345-0.685-4.43-2.271-8.728-4.56
								c-4.288-2.284-9.778-5.265-15.941-8.746c-6.144-3.469-12.949-7.431-19.898-11.691c-6.92-4.243-13.978-8.778-20.66-13.416
								c-7.223-5.012-13.836-9.903-19.687-14.415c-5.825-4.492-10.899-8.612-15.077-12.11c-4.162-3.485-7.439-6.356-9.686-8.365
								c-2.241-2.004-3.459-3.154-3.507-3.198l-0.521-0.496l0.767-0.308l19.356-7.742l0.622-0.245l0.521,0.356l3.617,2.469
								l12.038-7.132l32.396,22.001l-12,7.271l0.655,0.448l11.999-7.274l33.136,22.504l-11.957,7.417l41.754,28.503L728.313,193.41"
								/>
							<path fill="#898989" d="M608.335,186.289c-6.145-4.317-12.686-9.316-19.095-14.437c-6.378-5.095-12.624-10.309-18.229-15.098
								c-5.578-4.767-10.525-9.117-14.346-12.521c-3.808-3.393-6.504-5.853-7.598-6.856l60.069-24.502l119.176,80.536
								l-16.208,10.349l-41.754-28.503l-0.438,0.271l-33.132-22.681l0.392-0.238l-0.655-0.448l-0.392,0.237l-32.389-22.173
								l0.347-0.205l-3.617-2.469l-0.521-0.356l-0.622,0.245l-19.356,7.742l-0.767,0.308l0.521,0.496
								c0.048,0.044,1.266,1.193,3.507,3.198c2.246,2.009,5.523,4.879,9.686,8.365c4.178,3.498,9.252,7.618,15.077,12.11
								c5.851,4.512,12.464,9.403,19.687,14.415c6.683,4.638,13.74,9.173,20.66,13.416c6.949,4.26,13.755,8.222,19.898,11.691
								c6.163,3.481,11.653,6.462,15.941,8.746c4.298,2.289,7.383,3.875,8.728,4.56l-14.782,14.873
								c-1.53-0.798-5.14-2.692-10.081-5.359c-4.93-2.66-11.178-6.084-18.003-9.952c-6.801-3.853-14.169-8.141-21.375-12.548
								C621.488,195.109,614.475,190.603,608.335,186.289 M729.625,193.463l-120.382-81.32l-61.445,25.058
								c0,0,2.049,1.896,5.532,5.031c3.495,3.144,8.442,7.541,14.226,12.529c5.812,5.013,12.477,10.628,19.358,16.167
								c6.919,5.569,14.058,11.059,20.755,15.768c6.729,4.73,14.472,9.672,22.318,14.433c7.883,4.783,15.867,9.382,23.022,13.395
								c7.183,4.028,13.522,7.461,18.072,9.89c4.561,2.435,7.314,3.857,7.314,3.857l15.782-15.893c0,0-2.287-1.148-6.188-3.196
								c-3.894-2.043-9.388-4.98-15.807-8.559c-6.396-3.567-13.704-7.768-21.253-12.355c-7.516-4.567-15.266-9.513-22.595-14.597
								c-7.294-5.059-13.948-9.979-19.819-14.505c-5.845-4.505-10.917-8.625-15.077-12.11c-4.146-3.473-7.392-6.32-9.599-8.297
								c-2.202-1.974-3.374-3.083-3.374-3.083l19.364-7.742l112.309,76.699L729.625,193.463"/>
							<path fill="#DADCD6" d="M348.811,473.398l-13.072-11.495l-2.286,1.472l13.069,11.511L348.811,473.398 M463.772,398.708
								l-13.173-10.748l-105.396,67.851l13.082,11.433L463.772,398.708 M479.829,388.276l-13.184-10.646l-1.64,1.056l13.183,10.656
								L479.829,388.276"/>
							<path fill="#898989" d="M450.599,387.96l-0.677-0.553l-132.347,85.161l0.665,0.592l15.207-9.79l0.006,0.005l2.286-1.472
								l-0.006-0.005l9.465-6.093l0.006,0.005L450.599,387.96 M481.271,388.336l-14.546-11.741l-2.397,1.542l0.677,0.548l1.64-1.056
								l13.184,10.646l-1.641,1.065l0.413,0.334l-14.416,9.369l-0.413-0.337l-105.486,68.535l0.355,0.31l-9.475,6.158l-0.354-0.312
								l-2.289,1.487l0.679,0.598L481.271,388.336"/>
							<path fill="#DADCD6" d="M492.346,452.074l-16.426-13.58l-42.166,28.018l16.39,13.926L492.346,452.074 M519.222,434.011
								l-16.446-13.362l-9.41,6.253l16.439,13.438L519.222,434.011"/>
							<path fill="#898989" d="M493.054,452.659l-0.708-0.585l-42.202,28.363l-16.39-13.926l42.166-28.018l-0.699-0.578
								l-42.962,28.533l0.308,0.262l17.486,14.863L493.054,452.659 M520.695,434.072l-17.547-14.249l-0.309-0.251l-10.174,6.757
								l0.7,0.572l9.41-6.253l16.446,13.362l-9.417,6.328l0.708,0.579L520.695,434.072"/>
							<polyline id="floorplan-40323" fill="#FBE796" points="425.842,549.141 404.72,530.505 389.726,540.672 410.827,559.472 425.842,549.141 							
								"/>
							<path fill="#C1B995" d="M427.392,549.207l-23.474-20.7c0.075,0.08,0.151,0.159,0.229,0.238
								c0.078,0.078,0.157,0.156,0.237,0.234c0.08,0.077,0.162,0.154,0.245,0.23c0.083,0.077,0.167,0.153,0.252,0.229
								c0.051,0.045,0.104,0.089,0.157,0.133c0.054,0.043,0.108,0.086,0.163,0.129c0.055,0.043,0.11,0.085,0.166,0.127
								c0.055,0.043,0.111,0.085,0.166,0.128l-0.812,0.55l21.122,18.636l-15.015,10.331l-21.101-18.8l-0.835,0.566l21.821,19.452
								L427.392,549.207"/>
							<polyline fill="#DADCD6" points="460.4,577.462 444.707,563.628 428.31,575.049 443.989,589.018 460.4,577.462 							"/>
							<path fill="#898989" d="M428.31,575.049l16.397-11.421l15.693,13.834l-16.412,11.556L428.31,575.049 M461.969,577.529
								l-17.164-15.122l-18.062,12.574l17.146,15.285L461.969,577.529"/>
							<polyline fill="#DADCD6" points="502.372,513.308 486.403,499.805 467.498,512.768 483.453,526.425 502.372,513.308 							
								"/>
							<path fill="#898989" d="M467.498,512.768l18.905-12.963l15.969,13.503l-18.919,13.117L467.498,512.768 M489.364,501.09
								l-2.886-2.439l-20.505,14.053l2.883,2.47l13.831,11.845l20.515-14.224l-13.844-11.7L489.364,501.09"/>
							<polyline fill="#DADCD6" points="580.659,495.328 575.913,491.453 549.048,510.329 528.688,493.418 555.536,474.818 
								550.872,471.011 521.328,491.413 551.086,516.176 580.659,495.328 							"/>
							<path fill="#898989" d="M555.536,474.818l0.651-0.452l20.377,16.629l-0.651,0.458l4.746,3.875l-29.573,20.848l-29.758-24.763
								l29.544-20.402L555.536,474.818 M582.173,495.393l-31.26-25.508l-31.097,21.464l7.195,5.99l17.408,14.494l6.624,5.515
								L582.173,495.393"/>
							<polyline fill="#DADCD6" points="542.896,511.768 526.266,497.916 467.138,538.933 483.725,553.289 542.896,511.768 							
								"/>
							<path fill="#898989" d="M467.138,538.933l59.128-41.017l16.629,13.852l-59.17,41.521L467.138,538.933 M544.42,511.833
								l-17.408-14.494l-12.267,8.509l-0.69-0.579l-0.207,0.143l0.691,0.58l-10.648,7.386l-0.69-0.583l-20.515,14.224l0.69,0.59
								l-17.092,11.856l-0.689-0.597l18.059,15.638l-0.007-0.006l31.519-22.128L544.42,511.833"/>
							<path fill="#DADCD6" d="M424.274,169.128l-13.684-10.177c-0.469,0.073-1.308,0.229-2.522,0.546
								c-1.214,0.317-2.804,0.794-4.774,1.511c-1.972,0.717-4.325,1.674-7.066,2.949c-2.745,1.277-5.88,2.875-9.414,4.872
								c-3.53,1.996-6.387,3.786-8.696,5.367c-2.313,1.583-4.077,2.956-5.418,4.115c-1.343,1.16-2.262,2.104-2.885,2.83
								c-0.624,0.726-0.952,1.233-1.113,1.517l13.661,10.44L424.274,169.128"/>
							<path fill="#898989" d="M368.701,182.658c0.161-0.284,0.489-0.791,1.113-1.517c0.624-0.726,1.542-1.67,2.885-2.83
								c1.341-1.159,3.105-2.531,5.418-4.115c2.31-1.581,5.167-3.371,8.696-5.367c3.533-1.998,6.669-3.595,9.414-4.872
								c2.741-1.275,5.095-2.232,7.066-2.949c1.97-0.716,3.56-1.194,4.774-1.511c1.214-0.316,2.053-0.473,2.522-0.546l13.684,10.177
								l-41.912,23.97L368.701,182.658 M425.572,169.18l-14.633-10.878c0,0-0.498,0.038-1.503,0.242
								c-1.006,0.204-2.522,0.574-4.559,1.24c-2.039,0.666-4.601,1.627-7.701,3.014c-3.104,1.389-6.751,3.206-10.958,5.583
								c-4.216,2.383-7.485,4.476-10.017,6.274c-2.537,1.803-4.331,3.309-5.597,4.517c-1.267,1.209-2.003,2.119-2.422,2.727
								c-0.419,0.607-0.521,0.912-0.521,0.912l14.59,11.156L425.572,169.18"/>
							<polyline fill="#DADCD6" points="612.715,336.019 601.303,327.426 545.717,363.863 557.113,372.756 612.715,336.019 							
								"/>
							<path fill="#898989" d="M545.717,363.863l55.586-36.438l11.412,8.593l-55.602,36.738L545.717,363.863 M613.421,336.541
								l-12.33-9.283l-56.326,36.917l12.312,9.612L613.421,336.541"/>
							<polyline fill="#DADCD6" points="700.927,277.735 689.503,269.607 632.198,307.172 643.617,315.601 700.927,277.735 							
								"/>
							<path fill="#898989" d="M632.198,307.172l57.305-37.565l11.424,8.127l-57.31,37.866L632.198,307.172 M701.632,278.229
								l-12.341-8.78l-58.005,38.018l12.336,9.11l57.781-38.196L701.632,278.229"/>
							<polyline fill="#DADCD6" points="646.594,450.416 539.554,366.604 524.854,376.234 631.855,460.813 646.594,450.416 							
								"/>
							<path fill="#898989" d="M524.854,376.234l14.7-9.63l107.04,83.812l-14.738,10.397L524.854,376.234 M641.694,445.482
								l-102.103-79.907l-16.179,10.594l34.305,27.13l0.731-0.49l74.137,58.602l14.859-10.487l-6.383-4.998L641.694,445.482"/>
							<polyline fill="#DADCD6" points="631.096,461.349 558.413,403.868 550.477,409.192 623.146,466.957 631.096,461.349 							
								"/>
							<path fill="#898989" d="M550.477,409.192l7.937-5.324l72.683,57.48l-7.95,5.608L550.477,409.192 M632.586,461.411
								l-74.137-58.602l-0.731,0.49l-8.697,5.832l74.12,58.946L632.586,461.411"/>
							<polyline fill="#DADCD6" points="721.571,402.481 713.262,396.268 642.542,445.988 650.85,452.489 721.571,402.481 							
								"/>
							<path fill="#898989" d="M642.542,445.988l70.72-49.721l8.31,6.214l-70.722,50.008L642.542,445.988 M722.319,403.04
								l-9.372-7.008l-70.72,49.71l-0.428-0.334l-0.105,0.074l-0.632,0.443l6.383,4.998l3.414,2.673l4.431-3.135L722.319,403.04"/>
							<polyline fill="#DADCD6" points="637.742,521.661 623.585,510.2 520.034,584.714 534.152,596.934 637.742,521.661 							"/>
							<path fill="#898989" d="M520.034,584.714L623.585,510.2l14.157,11.461l-103.59,75.272L520.034,584.714 M638.679,521.246
								l-15.089-12.209l-105.129,75.609l15.047,13.03L638.679,521.246"/>
							<path fill="#DADCD6" d="M404.92,510.763l-16.299-14.261l-28.32,18.817l28.159,25.098l15.498-10.503
								c-1.565-1.403-2.708-2.974-3.436-4.622c-0.727-1.646-1.04-3.368-0.947-5.082c0.093-1.71,0.59-3.411,1.485-5.016
								C401.954,513.593,403.243,512.087,404.92,510.763"/>
							<path fill="#898989" d="M360.301,515.319l28.32-18.817l16.299,14.261c-1.677,1.324-2.966,2.83-3.86,4.432
								c-0.895,1.604-1.392,3.306-1.485,5.016c-0.093,1.714,0.22,3.437,0.947,5.082c0.728,1.648,1.87,3.219,3.436,4.622
								l-15.498,10.503L360.301,515.319 M406.407,510.794l-0.622-0.543l-16.358-14.306l-0.683-0.597l-0.458,0.305l0.458,0.399
								l-28.958,19.239l29.105,25.946l0.835-0.566l14.994-10.167l0.812-0.55c-0.055-0.043-0.11-0.085-0.166-0.128
								c-0.055-0.042-0.111-0.084-0.166-0.127c-0.055-0.043-0.109-0.086-0.163-0.129c-0.054-0.044-0.106-0.088-0.157-0.133
								c-0.085-0.075-0.17-0.151-0.252-0.229c-0.083-0.076-0.165-0.153-0.245-0.23c-0.08-0.078-0.159-0.156-0.237-0.234
								c-0.078-0.079-0.154-0.158-0.229-0.238c-1.198-1.271-2.059-2.663-2.59-4.11c-0.53-1.445-0.732-2.945-0.612-4.434
								c0.12-1.486,0.56-2.96,1.312-4.355c0.752-1.394,1.816-2.71,3.185-3.882c0.093-0.081,0.188-0.16,0.285-0.239
								s0.195-0.157,0.294-0.235c0.099-0.077,0.2-0.154,0.303-0.23S406.302,510.869,406.407,510.794"/>
							<polyline id="floorplan-40308" fill="#FBE796" points="647.231,144.842 616.115,123.7 605.016,130.279 636.126,151.568 647.231,144.842 							"/>
							<path fill="#C1B995" d="M605.016,130.279l11.1-6.579l31.116,21.142l-11.105,6.726L605.016,130.279 M648.519,144.889
								l-32.396-22.001l-12.038,7.132l-0.347,0.205l32.389,22.173l0.392-0.237L648.519,144.889"/>
							<polyline id="floorplan-40304" fill="#FBE796" points="681.008,167.791 649.174,146.161 638.067,152.896 669.898,174.678 681.008,167.791 							
								"/>
							<path fill="#C1B995" d="M638.067,152.896l11.106-6.735l31.834,21.629l-11.109,6.888L638.067,152.896 M682.309,167.838
								l-33.136-22.504l-11.999,7.274l-0.392,0.238l33.132,22.681l0.438-0.271L682.309,167.838"/>
							<polyline id="floorplan-40318" fill="#FBE796" points="522.223,420.439 513.588,413.473 504.53,419.492 513.162,426.497 522.223,420.439 							
								"/>
							<path fill="#C1B995" d="M504.53,419.492l9.058-6.02l8.635,6.967l-9.062,6.058L504.53,419.492 M523.688,420.501l-9.738-7.853
								l-0.303-0.244l-10.581,7.027l0.302,0.245l9.734,7.903L523.688,420.501"/>
							<polyline id="floorplan-40314" fill="#FBE796" points="509.036,440.856 492.351,427.211 476.45,437.774 493.123,451.552 509.036,440.856 							
								"/>
							<path fill="#C1B995" d="M476.45,437.774l15.901-10.563l16.685,13.646l-15.913,10.695L476.45,437.774 M510.514,440.918
								l-0.708-0.579l-16.439-13.438l-0.7-0.572l-0.246-0.201l-17.446,11.585l0.246,0.203l0.699,0.578l16.426,13.58l0.708,0.585
								L510.514,440.918"/>
							<polyline id="floorplan-40310" fill="#FBE796" points="477.15,389.611 464.143,379.09 451.261,387.383 464.26,397.984 477.15,389.611 							"/>
							<path fill="#C1B995" d="M451.261,387.383l12.881-8.292l13.008,10.521l-12.89,8.373L451.261,387.383 M478.601,389.676
								l-0.413-0.334l-13.183-10.656l-0.677-0.548l-0.104-0.084l-14.405,9.269l0.104,0.085l0.677,0.553l13.173,10.748l0.413,0.337
								L478.601,389.676"/>
							<polyline id="floorplan-40312" fill="#FBE796" points="357.144,467.49 345.055,456.919 337.226,461.961 349.308,472.58 357.144,467.49 							"/>
							<path fill="#C1B995" d="M337.226,461.961l7.829-5.042l12.089,10.571l-7.836,5.09L337.226,461.961 M358.641,467.553
								l-0.355-0.31l-13.082-11.433l-0.006-0.005l-9.465,6.093l0.006,0.005l13.072,11.495l0.354,0.312L358.641,467.553"/>
							<polyline id="floorplan-40306" fill="#FBE796" points="346.959,476.53 333.297,464.491 319.338,473.482 332.985,485.618 346.959,476.53 							"/>
							<path fill="#C1B995" d="M319.338,473.482l13.959-8.991l13.662,12.039l-13.975,9.088L319.338,473.482 M348.462,476.594
								l-1.26-1.11l-0.679-0.598l-13.069-11.511l-0.006-0.005l-15.207,9.79l-0.403,0.259l14.996,13.343L348.462,476.594"/>
							<polyline id="floorplan-40299" fill="#FBE796" points="448.331,481.656 431.93,467.704 410.968,481.633 427.349,495.758 448.331,481.656 							
								"/>
							<path fill="#C1B995" d="M410.968,481.633l20.961-13.929l16.401,13.952l-20.982,14.102L410.968,481.633 M449.843,481.715
								l-17.485-14.866l-0.321-0.272l-22.523,14.959l-0.051,0.034l17.782,15.341L449.843,481.715"/>
							<polyline id="floorplan-411" fill="#FBE796" points="525.497,497.275 512.402,486.367 501.717,493.709 514.806,504.688 525.497,497.275 							
								"/>
							<path fill="#C1B995" d="M501.717,493.709l10.685-7.342l13.095,10.908l-10.691,7.412L501.717,493.709 M527.012,497.339
								l-7.195-5.99l-7.354-6.122l-12.259,8.419l13.851,11.623l0.69,0.579L527.012,497.339"/>
							<polyline id="floorplan-423" fill="#FBE796" points="513.018,505.927 499.93,494.937 490.875,501.158 503.957,512.209 513.018,505.927 							
								"/>
							<path fill="#C1B995" d="M490.875,501.158l9.056-6.222l13.088,10.99l-9.061,6.282L490.875,501.158 M514.539,505.991
								l-0.691-0.58l-13.85-11.624l-10.634,7.303l-0.007,0.004l13.844,11.7l0.69,0.583L514.539,505.991"/>
							<polyline id="floorplan-40302" fill="#FBE796" points="481.841,527.543 468.771,516.345 453.312,526.966 466.371,538.269 481.841,527.543 							
								"/>
							<path fill="#C1B995" d="M453.312,526.966l15.46-10.621l13.069,11.198l-15.47,10.726L453.312,526.966 M483.376,527.607
								l-0.69-0.59l-13.831-11.845L451.777,526.9l13.818,11.967l0.689,0.597L483.376,527.607"/>
							<polyline id="floorplan-426" fill="#FBE796" points="575.055,490.933 556.148,475.496 530.201,493.481 549.092,509.165 575.055,490.933 							
								"/>
							<path fill="#C1B995" d="M530.201,493.481l25.947-17.985l18.906,15.437l-25.963,18.232L530.201,493.481 M576.564,490.995
								l-20.377-16.629l-0.651,0.452l-26.848,18.6l20.359,16.911l26.865-18.876L576.564,490.995"/>
							<polyline id="floorplan-40322" fill="#FBE796" points="556.275,522.913 544.375,513 516.704,532.437 528.593,542.519 556.275,522.913 							"/>
							<path fill="#C1B995" d="M516.704,532.437L544.375,513l11.9,9.913l-27.683,19.605L516.704,532.437 M557.813,522.983
								l-6.77-5.636l-6.624-5.515l-29.254,20.538l0.591-0.415l13.38,11.349L557.813,522.983"/>
							<polyline id="floorplan-40325" fill="#FBE796" points="527.585,543.232 515.696,533.145 485.201,554.565 497.074,564.842 527.585,543.232 							
								"/>
							<path fill="#C1B995" d="M485.201,554.565l30.496-21.421l11.889,10.088l-30.511,21.609L485.201,554.565 M529.137,543.305
								l-13.38-11.349l-0.591,0.415l-31.519,22.128l0.007,0.006l13.355,11.565L529.137,543.305"/>
							<polyline id="floorplan-40293" fill="#FBE796" points="705.885,554.19 657.116,515.077 581.606,570.131 630.331,611.157 705.885,554.19 							"/>
							<path fill="#C1B995" d="M657.116,515.077l-0.117-0.094l-75.662,54.92l0.27,0.228L657.116,515.077 M706.286,554.512
								l-0.401-0.321l-75.554,56.967l0.4,0.338L706.286,554.512"/>
							<polyline id="floorplan-40297" fill="#FBE796" points="780.435,499.186 730.888,461.29 664.675,509.566 714.239,549.125 780.435,499.186 							
								"/>
							<polyline fill="#C1B995" points="780.603,499.059 730.939,461.077 693.681,488.24 693.029,487.729 671.677,503.29 
								672.328,503.808 664.558,509.473 664.675,509.566 730.888,461.29 780.435,499.186 714.239,549.125 780.603,499.059 							
								"/>
							<polyline id="floorplan-40295" fill="#FBE796" points="629.535,611.758 580.812,570.711 492.584,635.038 541.177,678.38 629.535,611.758 							
								"/>
							<polyline fill="#C1B995" points="630.731,611.495 630.331,611.157 581.606,570.131 581.337,569.903 528.008,608.614 
								527.614,608.271 500.214,628.237 500.862,628.813 492.467,634.934 492.584,635.038 580.812,570.711 629.535,611.758 
								541.177,678.38 541.576,678.736 630.731,611.495 							"/>
							<path fill="#EDEBDD" d="M416.865,126.561l-15.249-11.135l-92.412,50.986l15.144,11.743L416.865,126.561 M1008.481,356.203
								L785.74,207.151L536.688,41.258l-134.103,74.003l14.664,10.703L534.607,60.53l0.633-0.353l0.592,0.401L764.65,214.514
								l0.703,0.468l-0.64,0.418L625.04,306.727l24.445,18.083l2.087-1.388l-20.981-15.5l-0.693-0.512l0.694-0.456l58.005-38
								l0.669-0.438l0.694,0.493l96.804,68.844l0.739,0.526l-0.668,0.469L642.208,440.249l-0.736,0.517l-0.74-0.578l-96.701-75.531
								l-0.692-0.541l0.735-0.481l56.324-36.899l0.709-0.464l0.692,0.521l20.263,15.249l2.832-1.882l-23.035-17.304l-62.8,41.083
								l103.172,80.7l69.975-49.161l0.711-0.499l0.742,0.555l65.277,48.792l32.723-24.061l-65.247-47.755l-0.741-0.543l0.688-0.483
								l43.445-30.523l0.668-0.469l0.741,0.527l102.772,73.088l0.792,0.563l-0.666,0.503L786.12,496.71l-0.726,0.547l-0.794-0.605
								l-53.908-41.132l-40.119,29.171l3.078,2.409l36.52-26.609l0.72-0.525l0.769,0.588l49.664,37.963l0.794,0.607l-0.72,0.543
								l-66.363,50.093l-0.754,0.569l-0.795-0.635l-49.682-39.671l-0.769-0.614l0.754-0.549l7.021-5.116l-3.078-2.445
								L525.251,604.898l2.812,2.449l128.167-92.981l0.757-0.551l0.769,0.616l49.287,39.509l0.794,0.638l-0.757,0.571
								L542.369,679.443l-0.843,0.636l-0.793-0.707l-49.107-43.825l-0.765-0.683l0.841-0.613l7.558-5.507l-4.59-4.074l-6.716,4.878
								l-0.841,0.61l-0.762-0.68l-21.194-18.903l-2.105,1.505l8.286,7.4l0.755,0.675l-0.842,0.605l-53.531,38.536l-0.87,0.627
								l-0.753-0.697l-35.681-33.035l-0.739-0.685l0.868-0.609l53.411-37.466l0.84-0.59l0.742,0.663l8.122,7.254l2.103-1.483
								l-86.81-77.43l-0.694-0.618l0.834-0.554l28.138-18.685l-5.557-4.863l-34.813,23.028l3.869,3.464l6.443,0.269l0.447,0.024
								l0.288,0.257l73.218,65.396l0.733,0.655l-0.84,0.588l-53.4,37.383l-0.868,0.607l-0.73-0.677L57.612,327.322l-0.567-0.525
								l0.838-0.467l265.45-148.003l-14.561-11.296L21.196,325.726l461.006,433.18L1008.481,356.203"/>
							<path fill="#AE9275" d="M401.322,115.211l-92.41,50.974L401.322,115.211 M324.638,178.379L535.199,60.931l228.823,154.001
								l-140.37,91.739l3.925,2.904l21.915,16.22l3.479-2.314l-9.35-6.904l-12.336-9.11l58.005-38.018l12.341,8.78l84.463,60.093
								L641.468,439.671l-84.392-65.884l-12.312-9.612l56.326-36.917l12.33,9.283l8.642,6.506l4.247-2.824l-21.205-15.921
								l-3.231-2.426l-64.248,42.009L641.8,445.408l0.428,0.334l70.72-49.71l9.372,7.008l56.688,42.392l34.12-25.102L747.1,372.026
								l43.217-30.377l0.229-0.161l102.774,73.122l-107.994,81.494l-54.674-41.696l-36.413,26.462l-5.171,3.758l3.962,3.103
								l0.651,0.511l37.259-27.163l49.663,37.981l-66.363,50.066l-49.564-39.559l-0.117-0.094l7.771-5.665l-0.651-0.518
								l-3.961-3.146l-29.037,21.103l-105.171,76.431l-9.843,7.153l3.949,3.44l0.394,0.344l53.329-38.711l75.662-54.92l0.117,0.094
								l48.769,39.113l0.401,0.321l-75.555,56.983l-89.155,67.241l-0.399-0.356l-48.593-43.342l-0.117-0.104l8.395-6.12
								l-0.648-0.576l-5.47-4.852l-7.552,5.482l-21.945-19.562l-2.808,2.007l-0.978,0.699l9.036,8.074l-53.529,38.515
								l-35.684-33.019l53.414-37.488l8.861,7.92l0.977-0.69l2.805-1.98l-3.451-3.076l-17.146-15.285l-16.032-14.291l-21.821-19.452
								l-29.105-25.946l28.958-19.239l-0.458-0.399l-0.013-0.012l-0.376-0.329l-5.595-4.894l-0.503-0.44l-0.587,0.389l-35.88,23.722
								l4.846,4.342l6.893,0.293l73.214,65.428l-53.397,37.361L58.45,326.854L324.638,178.379 M402.584,115.261l134.103-74.003
								L785.74,207.151l222.741,149.051l-526.28,402.703L21.196,325.726l287.576-158.695l14.561,11.296L57.883,326.33l-0.838,0.467
								l0.567,0.525L376.019,622.12l0.73,0.677l0.868-0.607l53.4-37.383l0.84-0.588l-0.733-0.655l-73.218-65.396l-0.288-0.257
								l-0.447-0.024l-6.443-0.269l-3.869-3.464l34.813-23.028l5.557,4.863l-28.138,18.685l-0.834,0.554l0.694,0.618l86.81,77.43
								l-2.103,1.483l-8.122-7.254l-0.742-0.663l-0.84,0.59l-53.411,37.466l-0.868,0.609l0.739,0.685l35.681,33.035l0.753,0.697
								l0.87-0.627l53.531-38.536l0.842-0.605l-0.755-0.675l-8.286-7.4l2.105-1.505l21.194,18.903l0.762,0.68l0.841-0.61
								l6.716-4.878l4.59,4.074l-7.558,5.507l-0.841,0.613l0.765,0.683l49.107,43.825l0.793,0.707l0.843-0.636L707.08,555.149
								l0.757-0.571l-0.794-0.638l-49.287-39.509l-0.769-0.616l-0.757,0.551l-128.167,92.981l-2.812-2.449l142.481-103.601
								l3.078,2.445l-7.021,5.116l-0.754,0.549l0.769,0.614l49.682,39.671l0.795,0.635l0.754-0.569l66.363-50.093l0.72-0.543
								l-0.794-0.607l-49.664-37.963l-0.769-0.588l-0.72,0.525l-36.52,26.609l-3.078-2.409l40.119-29.171l53.908,41.132l0.794,0.605
								l0.726-0.547l107.991-81.537l0.666-0.503l-0.792-0.563l-102.772-73.088l-0.741-0.527l-0.668,0.469l-43.445,30.523
								l-0.688,0.483l0.741,0.543l65.247,47.755l-32.723,24.061l-65.277-48.792l-0.742-0.555l-0.711,0.499l-69.975,49.161
								l-103.172-80.7l62.8-41.083l23.035,17.304l-2.832,1.882l-20.263-15.249l-0.692-0.521l-0.709,0.464l-56.324,36.899
								l-0.735,0.481l0.692,0.541l96.701,75.531l0.74,0.578l0.736-0.517l144.627-101.401l0.668-0.469l-0.739-0.526L689.96,269.01
								l-0.694-0.493l-0.669,0.438l-58.005,38l-0.694,0.456l0.693,0.512l20.981,15.5l-2.087,1.388l-24.445-18.083L764.714,215.4
								l0.64-0.418l-0.703-0.468L535.832,60.578l-0.592-0.401l-0.633,0.353l-117.359,65.434L402.584,115.261 M1009.899,356.261
								L786.366,206.74L536.727,40.52l-135.405,74.691l0.294,0.215l15.249,11.135l0.292,0.213l-92.519,51.605l-0.29-0.225
								l-15.144-11.743l-0.292-0.227L19.791,325.668l462.326,434.67L1009.899,356.261"/>
							<path fill="#EDEBDD" d="M460.366,165.453l-7.723-1.489c-0.474,0.563-1.863,2.198-3.893,4.447
								c-2.036,2.254-4.719,5.128-7.776,8.162c-3.067,3.043-6.511,6.247-10.051,9.144c-3.551,2.905-7.196,5.498-10.647,7.302
								c-3.447,1.803-7.945,3.718-12.816,5.594c-4.881,1.88-10.136,3.722-15.079,5.372c-4.953,1.653-9.59,3.114-13.223,4.229
								c-3.637,1.117-6.263,1.886-7.185,2.153l1.737,5.948l10.877,5.608l10.933-6.352l-2.949-3.234l29.112-16.87L564.452,303.13
								l39.938-25.565l-3.178-2.335l-36.395,23.245L425.202,193.429l27.909-16.172l4.294,3.173l8.391-4.876L460.366,165.453"/>
							<path fill="#AE9275" d="M373.71,216.315l-1.737-5.948c0.922-0.268,3.548-1.037,7.185-2.153
								c3.632-1.115,8.27-2.576,13.223-4.229c4.943-1.65,10.198-3.491,15.079-5.372c4.871-1.876,9.37-3.791,12.816-5.594
								c3.451-1.804,7.097-4.397,10.647-7.302c3.54-2.896,6.984-6.101,10.051-9.144c3.057-3.033,5.741-5.908,7.776-8.162
								c2.03-2.249,3.419-3.884,3.893-4.447l7.723,1.489l5.43,10.1l-8.391,4.876l-4.294-3.173l-27.909,16.172l139.616,105.046
								l36.395-23.245l3.178,2.335l-39.938,25.565L421.684,195.468l-29.112,16.87l2.949,3.234l-10.933,6.352L373.71,216.315
								 M461.082,164.967l-8.9-1.713l-0.172,0.214c-0.043,0.053-1.172,1.412-3.066,3.539c-1.898,2.132-4.567,5.039-7.684,8.179
								c-3.127,3.151-6.706,6.54-10.407,9.614c-3.712,3.084-7.544,5.852-11.156,7.741c-3.624,1.896-8.426,3.917-13.603,5.888
								c-5.188,1.975-10.751,3.897-15.878,5.586c-5.136,1.693-9.831,3.151-13.266,4.193c-3.439,1.042-5.611,1.667-5.697,1.69
								L370.898,210l1.952,6.679l11.757,6.062l12.134-7.052l-2.951-3.234l27.802-16.117L564.42,304.095l41.34-26.474l-4.532-3.329
								l-36.377,23.224L426.517,193.482l26.517-15.372l4.301,3.18l9.547-5.551L461.082,164.967"/>
							<polyline fill="#EDEBDD" points="606.796,497.186 548.643,450.097 546.353,451.662 604.503,498.817 606.796,497.186 							
								"/>
							<path fill="#AE9275" d="M546.353,451.662l2.29-1.565l58.153,47.089l-2.293,1.632L546.353,451.662 M608.311,497.25
								l-59.626-48.258l-3.817,2.607l59.621,48.371L608.311,497.25"/>
							<polyline fill="#EDEBDD" points="535.43,425.967 512.81,407.758 511.083,408.902 533.701,427.131 535.43,425.967 							"/>
							<path fill="#AE9275" d="M511.083,408.902l1.727-1.145l22.62,18.209l-1.729,1.164L511.083,408.902 M536.904,426.033
								l-24.036-19.339l-0.381,0.253l-0.861,0.57l-2,1.324l3.841,3.097l0.7,0.564l19.492,15.716L536.904,426.033"/>
							<polyline fill="#EDEBDD" points="468.889,374.672 467.212,375.75 478.428,384.799 468.889,374.672 							"/>
							<path fill="#AE9275" d="M467.212,375.75l1.677-1.079l9.539,10.127L467.212,375.75 M469.077,373.569l-3.3,2.122l17.022,13.738
								l0.801-0.459L469.077,373.569"/>
						</g>
					</g>
				</g>
			</g>
		</g>
	</g>
</g>
</svg>
